<?xml version="1.0" encoding="UTF-8" standalone="no"?>
<svg
   id="Icons"
   version="1.1"
   viewBox="0 0 16 16"
   xml:space="preserve"
   sodipodi:docname="pause.svg"
   inkscape:version="1.1 (c68e22c387, 2021-05-23)"
   width="16"
   height="16"
   xmlns:inkscape="http://www.inkscape.org/namespaces/inkscape"
   xmlns:sodipodi="http://sodipodi.sourceforge.net/DTD/sodipodi-0.dtd"
   xmlns="http://www.w3.org/2000/svg"
   xmlns:svg="http://www.w3.org/2000/svg"><defs
     id="defs11" /><sodipodi:namedview
     id="namedview9"
     pagecolor="#505050"
     bordercolor="#eeeeee"
     borderopacity="1"
     inkscape:pageshadow="0"
     inkscape:pageopacity="0"
     inkscape:pagecheckerboard="0"
     showgrid="false"
     inkscape:zoom="8"
     inkscape:cx="-43.1875"
     inkscape:cy="117.25"
     inkscape:window-width="1276"
     inkscape:window-height="1368"
     inkscape:window-x="3195"
     inkscape:window-y="0"
     inkscape:window-maximized="0"
     inkscape:current-layer="Icons"
     lock-margins="true"
     fit-margin-top="0"
     fit-margin-left="0"
     fit-margin-right="0"
     fit-margin-bottom="0" /><g
     id="g6"
     transform="translate(-8,-8)"><path
       d="M 14,8 H 9 C 8.4,8 8,8.4 8,9 v 14 c 0,0.6 0.4,1 1,1 h 5 c 0.6,0 1,-0.4 1,-1 V 9 C 15,8.4 14.6,8 14,8 Z"
       id="path2" /><path
       d="m 23,8 h -5 c -0.6,0 -1,0.4 -1,1 v 14 c 0,0.6 0.4,1 1,1 h 5 c 0.6,0 1,-0.4 1,-1 V 9 C 24,8.4 23.6,8 23,8 Z"
       id="path4" /></g></svg>
